<?xml version="1.0" encoding="UTF-8"?>
<svg id="_Слой_1" data-name="Слой 1" xmlns="http://www.w3.org/2000/svg" viewBox="0 0 700 250">
  <defs>
    <style>
      .cls-1 {
        fill: #0d0d63;
      }
    </style>
  </defs>
  <g>
    <path class="cls-1" d="M181.94,183.55c0-1.01-.38-1.8-1.14-2.36-.76-.56-2.09-1.04-3.98-1.45-1.9-.4-3.4-.89-4.51-1.46-1.11-.57-1.94-1.24-2.47-2.02-.53-.78-.8-1.71-.8-2.79,0-1.79.76-3.31,2.28-4.55,1.52-1.24,3.46-1.86,5.81-1.86,2.48,0,4.49.64,6.04,1.92s2.32,2.92,2.32,4.92h-3.76c0-1.02-.43-1.91-1.3-2.65-.87-.74-1.97-1.11-3.29-1.11s-2.43.3-3.2.89-1.15,1.37-1.15,2.33c0,.9.36,1.58,1.07,2.04.71.46,2.01.9,3.87,1.32,1.87.42,3.38.92,4.54,1.5,1.16.58,2.02,1.28,2.58,2.09s.84,1.81.84,2.98c0,1.96-.78,3.52-2.35,4.7-1.56,1.18-3.59,1.77-6.09,1.77-1.75,0-3.3-.31-4.65-.93-1.35-.62-2.4-1.49-3.17-2.6s-1.14-2.32-1.14-3.61h3.74c.07,1.25.57,2.25,1.51,2.98.94.74,2.17,1.1,3.71,1.1,1.42,0,2.55-.29,3.41-.86.86-.57,1.28-1.34,1.28-2.3Z"/>
    <path class="cls-1" d="M195.73,167.47l.1,2.43c1.6-1.89,3.77-2.83,6.49-2.83,3.06,0,5.14,1.17,6.25,3.52.73-1.05,1.67-1.9,2.84-2.55,1.17-.65,2.54-.97,4.14-.97,4.8,0,7.24,2.54,7.32,7.62v14.66h-3.74v-14.44c0-1.56-.36-2.73-1.07-3.51-.71-.78-1.92-1.16-3.6-1.16-1.39,0-2.54.42-3.46,1.24s-1.45,1.95-1.6,3.35v14.52h-3.76v-14.34c0-3.18-1.56-4.77-4.67-4.77-2.45,0-4.13,1.04-5.04,3.13v15.98h-3.74v-21.88h3.54Z"/>
    <path class="cls-1" d="M243.68,189.36c-.22-.43-.39-1.2-.53-2.31-1.74,1.81-3.82,2.71-6.23,2.71-2.16,0-3.93-.61-5.31-1.83-1.38-1.22-2.07-2.77-2.07-4.64,0-2.28.87-4.05,2.6-5.31,1.73-1.26,4.17-1.89,7.31-1.89h3.64v-1.72c0-1.31-.39-2.35-1.17-3.12s-1.94-1.16-3.46-1.16c-1.33,0-2.45.34-3.36,1.01-.9.67-1.35,1.49-1.35,2.45h-3.76c0-1.09.39-2.15,1.16-3.17.78-1.02,1.83-1.82,3.16-2.42,1.33-.59,2.79-.89,4.38-.89,2.52,0,4.5.63,5.93,1.89s2.17,3,2.23,5.21v10.07c0,2.01.26,3.61.77,4.79v.32h-3.92ZM237.47,186.51c1.17,0,2.29-.3,3.34-.91,1.05-.61,1.81-1.4,2.29-2.37v-4.49h-2.93c-4.58,0-6.88,1.34-6.88,4.02,0,1.17.39,2.09,1.17,2.75.78.66,1.79.99,3.01.99Z"/>
    <path class="cls-1" d="M264.94,170.83c-.57-.09-1.18-.14-1.84-.14-2.45,0-4.12,1.04-5,3.13v15.53h-3.74v-21.88h3.64l.06,2.53c1.23-1.96,2.97-2.93,5.22-2.93.73,0,1.28.09,1.66.28v3.48Z"/>
    <path class="cls-1" d="M276.12,162.17v5.3h4.09v2.89h-4.09v13.59c0,.88.18,1.54.55,1.97.36.44.98.66,1.86.66.43,0,1.02-.08,1.78-.24v3.02c-.98.27-1.94.4-2.87.4-1.67,0-2.93-.51-3.78-1.52-.85-1.01-1.27-2.45-1.27-4.31v-13.57h-3.98v-2.89h3.98v-5.3h3.74Z"/>
    <path class="cls-1" d="M298.17,161.67c0-.61.19-1.12.56-1.54.37-.42.92-.63,1.65-.63s1.28.21,1.66.63.57.93.57,1.54-.19,1.11-.57,1.52-.93.61-1.66.61-1.28-.2-1.65-.61c-.37-.4-.56-.91-.56-1.52ZM302.21,189.36h-3.74v-21.88h3.74v21.88Z"/>
    <path class="cls-1" d="M313.37,167.47l.1,2.43c1.6-1.89,3.77-2.83,6.49-2.83,3.06,0,5.14,1.17,6.25,3.52.73-1.05,1.67-1.9,2.84-2.55,1.17-.65,2.54-.97,4.14-.97,4.8,0,7.24,2.54,7.32,7.62v14.66h-3.74v-14.44c0-1.56-.36-2.73-1.07-3.51s-1.92-1.16-3.6-1.16c-1.39,0-2.54.42-3.46,1.24s-1.45,1.95-1.6,3.35v14.52h-3.76v-14.34c0-3.18-1.56-4.77-4.67-4.77-2.45,0-4.13,1.04-5.04,3.13v15.98h-3.74v-21.88h3.54Z"/>
    <path class="cls-1" d="M351.33,167.47l.1,2.43c1.6-1.89,3.77-2.83,6.49-2.83,3.06,0,5.14,1.17,6.25,3.52.73-1.05,1.67-1.9,2.84-2.55,1.17-.65,2.54-.97,4.14-.97,4.8,0,7.24,2.54,7.32,7.62v14.66h-3.74v-14.44c0-1.56-.36-2.73-1.07-3.51s-1.92-1.16-3.6-1.16c-1.39,0-2.54.42-3.46,1.24s-1.45,1.95-1.6,3.35v14.52h-3.76v-14.34c0-3.18-1.56-4.77-4.67-4.77-2.45,0-4.13,1.04-5.04,3.13v15.98h-3.74v-21.88h3.54Z"/>
    <path class="cls-1" d="M385.8,161.67c0-.61.19-1.12.56-1.54.37-.42.92-.63,1.65-.63s1.28.21,1.66.63c.38.42.57.93.57,1.54s-.19,1.11-.57,1.52c-.38.4-.93.61-1.66.61s-1.28-.2-1.65-.61c-.37-.4-.56-.91-.56-1.52ZM389.84,189.36h-3.74v-21.88h3.74v21.88Z"/>
    <path class="cls-1" d="M396.6,178.23c0-3.41.79-6.12,2.37-8.14,1.58-2.02,3.67-3.02,6.27-3.02s4.75.94,6.25,2.83l.18-2.43h3.42v21.36c0,2.83-.84,5.06-2.52,6.69-1.68,1.63-3.93,2.45-6.76,2.45-1.58,0-3.12-.34-4.63-1.01-1.51-.67-2.66-1.6-3.46-2.77l1.94-2.25c1.6,1.98,3.57,2.97,5.89,2.97,1.82,0,3.24-.51,4.26-1.54,1.02-1.02,1.53-2.47,1.53-4.33v-1.88c-1.5,1.73-3.54,2.59-6.13,2.59s-4.63-1.03-6.22-3.09c-1.58-2.06-2.38-4.87-2.38-8.43ZM400.36,178.66c0,2.47.51,4.41,1.52,5.81,1.01,1.41,2.43,2.11,4.25,2.11,2.36,0,4.09-1.07,5.2-3.22v-9.99c-1.15-2.09-2.87-3.13-5.16-3.13-1.82,0-3.24.71-4.27,2.12-1.02,1.42-1.54,3.51-1.54,6.29Z"/>
    <path class="cls-1" d="M432.96,170.83c-.57-.09-1.18-.14-1.84-.14-2.45,0-4.12,1.04-5,3.13v15.53h-3.74v-21.88h3.64l.06,2.53c1.23-1.96,2.97-2.93,5.22-2.93.73,0,1.28.09,1.66.28v3.48Z"/>
    <path class="cls-1" d="M450.76,189.36c-.22-.43-.39-1.2-.53-2.31-1.74,1.81-3.82,2.71-6.23,2.71-2.16,0-3.93-.61-5.31-1.83-1.38-1.22-2.07-2.77-2.07-4.64,0-2.28.87-4.05,2.6-5.31s4.17-1.89,7.31-1.89h3.64v-1.72c0-1.31-.39-2.35-1.17-3.12s-1.94-1.16-3.46-1.16c-1.33,0-2.45.34-3.36,1.01-.9.67-1.35,1.49-1.35,2.45h-3.76c0-1.09.39-2.15,1.16-3.17.78-1.02,1.83-1.82,3.16-2.42,1.33-.59,2.79-.89,4.38-.89,2.52,0,4.5.63,5.93,1.89,1.43,1.26,2.17,3,2.23,5.21v10.07c0,2.01.26,3.61.77,4.79v.32h-3.92ZM444.55,186.51c1.17,0,2.29-.3,3.34-.91,1.05-.61,1.81-1.4,2.29-2.37v-4.49h-2.93c-4.58,0-6.88,1.34-6.88,4.02,0,1.17.39,2.09,1.17,2.75.78.66,1.79.99,3.01.99Z"/>
    <path class="cls-1" d="M466.51,162.17v5.3h4.09v2.89h-4.09v13.59c0,.88.18,1.54.55,1.97s.98.66,1.86.66c.43,0,1.02-.08,1.78-.24v3.02c-.98.27-1.94.4-2.87.4-1.67,0-2.93-.51-3.78-1.52-.85-1.01-1.27-2.45-1.27-4.31v-13.57h-3.98v-2.89h3.98v-5.3h3.74Z"/>
    <path class="cls-1" d="M476.64,161.67c0-.61.19-1.12.56-1.54.37-.42.92-.63,1.65-.63s1.28.21,1.66.63c.38.42.57.93.57,1.54s-.19,1.11-.57,1.52c-.38.4-.93.61-1.66.61s-1.28-.2-1.65-.61c-.37-.4-.56-.91-.56-1.52ZM480.69,189.36h-3.74v-21.88h3.74v21.88Z"/>
    <path class="cls-1" d="M487.34,178.21c0-2.14.42-4.07,1.26-5.78s2.02-3.03,3.52-3.96c1.5-.93,3.22-1.4,5.15-1.4,2.98,0,5.39,1.03,7.23,3.09,1.84,2.06,2.76,4.81,2.76,8.23v.26c0,2.13-.41,4.04-1.22,5.73-.82,1.69-1.98,3.01-3.5,3.95-1.52.94-3.26,1.42-5.23,1.42-2.97,0-5.37-1.03-7.21-3.09-1.84-2.06-2.76-4.79-2.76-8.19v-.26ZM491.1,178.66c0,2.43.56,4.38,1.69,5.84,1.13,1.47,2.63,2.21,4.52,2.21s3.41-.75,4.53-2.24c1.12-1.49,1.68-3.58,1.68-6.26,0-2.4-.57-4.34-1.71-5.83-1.14-1.49-2.65-2.23-4.54-2.23s-3.34.73-4.47,2.2-1.7,3.57-1.7,6.31Z"/>
    <path class="cls-1" d="M517.15,167.47l.12,2.75c1.67-2.1,3.86-3.16,6.55-3.16,4.62,0,6.96,2.61,7,7.83v14.46h-3.74v-14.48c-.01-1.58-.37-2.74-1.08-3.5s-1.81-1.13-3.31-1.13c-1.21,0-2.28.32-3.2.97s-1.63,1.5-2.14,2.55v15.59h-3.74v-21.88h3.54Z"/>
  </g>
  <g>
    <path class="cls-1" d="M442.97,118.16h21.5v16.75h-21.5v-16.75Z"/>
    <path class="cls-1" d="M615.53,106.08v-54.05h22.15v54.41c0,18.05-17.23,28.48-35.88,28.48s-36.01-10.43-36.01-28.48v-54.41h22.15v54.05c0,6.68,7.12,9.96,13.86,9.96s13.73-3.28,13.73-9.96Z"/>
    <path class="cls-1" d="M158.26,52.03v82.88h21.51V52.03h-21.51Z"/>
    <path class="cls-1" d="M263.37,108.19c0-.59-.02-1.18-.03-1.76-.11-5.48-1.48-11.47-5.47-15.47-3.65-3.65-9.39-5.47-17.18-5.47h-21.53c-3.96,0-7.14-3.22-7.14-7.18v-2.4c0-3.96,3.18-7.18,7.14-7.18h37.16v-16.72h-41.93c-8.34,0-14.43,1.9-18.19,5.7-3.8,3.76-5.7,9.85-5.7,18.19v3.61c0,8.34,1.9,14.43,5.7,18.19,3.76,3.8,9.85,5.7,18.19,5.7h21.64c3.18,0,5.78,2.53,5.84,5.69h-.03v1.9c0,3.96-3.18,7.18-7.14,7.18h-44.22v16.72h48.99c8.34,0,14.43-1.9,18.19-5.66,5.43-5.43,5.79-13.73,5.7-21.05Z"/>
    <path class="cls-1" d="M359.4,108.19c0-.59.02-1.18.03-1.76.11-5.48,1.48-11.47,5.47-15.47,3.65-3.65,9.39-5.47,17.18-5.47h21.53c3.96,0,7.14-3.22,7.14-7.18v-2.4c0-3.96-3.18-7.18-7.14-7.18h-37.16v-16.72h41.93c8.34,0,14.43,1.9,18.19,5.7,3.8,3.76,5.7,9.85,5.7,18.19v3.61c0,8.34-1.9,14.43-5.7,18.19-3.76,3.8-9.85,5.7-18.19,5.7h-21.64c-3.18,0-5.78,2.53-5.84,5.69h.03v1.9c0,3.96,3.18,7.18,7.14,7.18h44.22v16.72h-48.99c-8.34,0-14.43-1.9-18.19-5.66-5.43-5.43-5.79-13.73-5.7-21.05Z"/>
    <path class="cls-1" d="M86.55,120.39l-24.23-68.33h18.25c4.36,0,8.2,2.86,9.45,7.03l14.51,48.36h.48l14.62-48.38c1.26-4.16,5.1-7.01,9.45-7.01h18.47l-24.13,68.3c-3.08,8.71-9.9,14.54-19.14,14.54h0c-9.23,0-14.64-5.81-17.72-14.51Z"/>
    <path class="cls-1" d="M329.85,66.61c-3.07-8.71-9.9-14.55-19.14-14.55s-14.64,5.82-17.73,14.52l-24.23,68.32h18.25c4.36,0,8.2-2.86,9.45-7.02l3.27-10.89h23.04l3.29,10.9c1.25,4.17,5.09,7.01,9.44,7.01h18.47l-24.12-68.3ZM304.88,99.79l6.08-20.27h.49l6.13,20.27h-12.69Z"/>
    <path class="cls-1" d="M536.29,66.61c-3.07-8.71-9.9-14.55-19.14-14.55s-14.64,5.82-17.73,14.52l-24.23,68.32h18.25c4.36,0,8.2-2.86,9.45-7.02l3.27-10.89h23.04l3.29,10.9c1.25,4.17,5.09,7.01,9.44,7.01h18.47l-24.12-68.3ZM511.32,99.79l6.08-20.27h.49l6.13,20.27h-12.69Z"/>
  </g>
</svg>
