<?xml version="1.0" encoding="UTF-8"?>
<svg id="_Слой_1" data-name="Слой 1" xmlns="http://www.w3.org/2000/svg" viewBox="0 0 700 250">
  <defs>
    <style>
      .cls-1 {
        fill: #fff;
      }
    </style>
  </defs>
  <g>
    <path class="cls-1" d="M172.7,188.61c1.31.6,2.84.91,4.55.91,2.43,0,4.42-.58,5.94-1.72,1.51-1.14,2.25-2.61,2.25-4.5,0-1.12-.27-2.07-.8-2.84-.53-.78-1.37-1.45-2.48-2.01-1.14-.57-2.65-1.06-4.48-1.48-1.91-.43-3.21-.87-3.95-1.35-.79-.5-1.19-1.26-1.19-2.25s.42-1.88,1.25-2.52c.81-.62,1.94-.94,3.35-.94s2.54.39,3.45,1.17c.85.73,1.32,1.6,1.38,2.59h3.27c-.06-1.8-.81-3.3-2.22-4.47-1.49-1.24-3.47-1.86-5.88-1.86s-4.19.61-5.66,1.8c-1.45,1.18-2.18,2.65-2.18,4.36,0,1.02.25,1.92.76,2.65.5.74,1.3,1.4,2.37,1.94,1.09.55,2.59,1.04,4.45,1.43,1.95.42,3.28.9,4.08,1.49.83.61,1.24,1.47,1.24,2.56s-.47,1.88-1.4,2.5c-.89.6-2.09.9-3.55.9-1.59,0-2.89-.39-3.87-1.16-.93-.73-1.46-1.72-1.58-2.93h-3.26c.05,1.14.41,2.23,1.09,3.22.73,1.07,1.76,1.92,3.06,2.51Z"/>
    <path class="cls-1" d="M218.24,171.24c.75.82,1.14,2.06,1.14,3.68v14.19h3.24v-14.41c-.08-4.96-2.39-7.38-7.07-7.38-1.54,0-2.89.32-4.01.94-1.13.62-2.05,1.46-2.76,2.47l-.25.36-.19-.39c-1.07-2.27-3.04-3.38-6.02-3.38-2.63,0-4.75.92-6.3,2.74l-.41.49-.12-2.83h-3.05v21.38h3.24l.02-15.83c.94-2.18,2.71-3.29,5.27-3.29,3.27,0,4.92,1.69,4.92,5.02v14.09h3.26v-14.27c.16-1.49.72-2.66,1.68-3.53.96-.87,2.18-1.31,3.63-1.31,1.75,0,3.02.42,3.78,1.24Z"/>
    <path class="cls-1" d="M231.78,187.75c1.33,1.17,3.06,1.77,5.14,1.77,2.33,0,4.37-.89,6.05-2.63l.36-.38.06.52c.12.96.26,1.66.44,2.09l3.51-.02c-.51-1.21-.77-2.84-.77-4.85v-10.07c-.05-2.12-.77-3.81-2.14-5.02-1.38-1.21-3.31-1.83-5.76-1.83-1.55,0-2.99.29-4.28.87-1.28.57-2.31,1.36-3.06,2.34-.68.89-1.05,1.82-1.1,2.76h3.26c.07-.93.56-1.73,1.45-2.4.94-.7,2.12-1.06,3.51-1.06,1.58,0,2.81.42,3.63,1.24.83.82,1.25,1.93,1.25,3.3v1.97h-3.89c-3.07,0-5.48.62-7.16,1.84-1.66,1.21-2.5,2.92-2.5,5.11,0,1.79.67,3.29,1.99,4.45ZM240.16,178.49h3.18l-.03,4.85c-.49,1.01-1.29,1.84-2.38,2.47-1.09.63-2.25.94-3.46.94-1.28,0-2.35-.35-3.17-1.05-.84-.71-1.26-1.7-1.26-2.94,0-2.84,2.4-4.27,7.13-4.27Z"/>
    <path class="cls-1" d="M263.1,170.44c.56,0,1.1.03,1.59.1v-3.03c-.34-.13-.81-.2-1.41-.2-2.18,0-3.82.92-5.01,2.82l-.44.7-.07-3.11h-3.15v21.38h3.24l.02-15.38c.91-2.18,2.67-3.29,5.23-3.29Z"/>
    <path class="cls-1" d="M273.85,188.09c.8.95,2,1.43,3.59,1.43.85,0,1.73-.12,2.62-.34v-2.52c-.63.12-1.14.19-1.53.19-.95,0-1.64-.25-2.05-.75-.4-.48-.6-1.2-.6-2.13v-13.84h4.08v-2.39h-4.08v-5.3h-3.24v5.3h-3.98v2.39h3.98v13.82c0,1.79.41,3.19,1.22,4.15Z"/>
    <g>
      <rect class="cls-1" x="298.72" y="167.72" width="3.24" height="21.38"/>
      <path class="cls-1" d="M301.84,160.3c-.33-.37-.81-.55-1.47-.55s-1.14.18-1.46.54c-.33.37-.49.82-.49,1.37s.16.99.49,1.35c.32.35.8.53,1.46.53s1.14-.17,1.48-.53c.34-.36.5-.8.5-1.35s-.16-1-.5-1.37Z"/>
    </g>
    <path class="cls-1" d="M335.89,171.24c.75.82,1.14,2.06,1.14,3.68v14.19h3.24v-14.41c-.08-4.96-2.39-7.38-7.07-7.38-1.54,0-2.89.32-4.01.94-1.13.62-2.05,1.46-2.76,2.47l-.25.36-.19-.39c-1.07-2.27-3.04-3.38-6.02-3.38-2.63,0-4.75.92-6.3,2.74l-.41.49-.12-2.83h-3.05v21.38h3.24l.02-15.83c.94-2.18,2.71-3.29,5.27-3.29,3.27,0,4.92,1.69,4.92,5.02v14.09h3.26v-14.27c.16-1.49.72-2.66,1.68-3.53.96-.87,2.18-1.31,3.63-1.31,1.75,0,3.02.42,3.78,1.24Z"/>
    <path class="cls-1" d="M373.85,171.24c.76.82,1.14,2.06,1.14,3.68v14.19h3.24v-14.41c-.08-4.96-2.39-7.38-7.07-7.38-1.54,0-2.89.32-4.02.94-1.13.62-2.05,1.46-2.76,2.47l-.25.36-.19-.39c-1.07-2.27-3.04-3.38-6.02-3.38-2.63,0-4.75.92-6.3,2.74l-.41.49-.12-2.83h-3.05v21.38h3.24l.02-15.83c.94-2.18,2.71-3.29,5.27-3.29,3.27,0,4.92,1.69,4.92,5.02v14.09h3.26v-14.27c.16-1.48.72-2.66,1.68-3.53.96-.87,2.18-1.31,3.63-1.31,1.75,0,3.02.42,3.78,1.24Z"/>
    <g>
      <path class="cls-1" d="M389.48,160.3c-.33-.37-.81-.55-1.47-.55s-1.14.18-1.46.54c-.33.37-.49.82-.49,1.37s.16.99.49,1.35c.32.35.81.53,1.46.53s1.14-.17,1.48-.53c.34-.36.5-.8.5-1.35s-.16-1-.5-1.37Z"/>
      <rect class="cls-1" x="386.35" y="167.72" width="3.24" height="21.38"/>
    </g>
    <path class="cls-1" d="M401.27,196.73c1.47.66,2.99.99,4.53.99,2.75,0,4.97-.8,6.59-2.38,1.62-1.58,2.44-3.77,2.44-6.52v-21.11h-2.94l-.21,2.83-.4-.5c-1.44-1.82-3.48-2.74-6.05-2.74s-4.55.99-6.07,2.93c-1.54,1.96-2.31,4.65-2.31,7.99s.78,6.27,2.33,8.28c1.53,1.99,3.55,3,6.02,3s4.5-.84,5.94-2.5l.44-.51v2.55c0,1.92-.54,3.44-1.6,4.5-1.06,1.07-2.55,1.61-4.44,1.61-2.3,0-4.28-.95-5.89-2.84l-1.62,1.88c.76,1.06,1.85,1.91,3.24,2.53ZM411.54,183.49c-1.15,2.22-2.97,3.35-5.42,3.35-1.9,0-3.39-.75-4.45-2.22-1.04-1.44-1.56-3.45-1.56-5.96,0-2.82.53-4.98,1.58-6.44,1.07-1.48,2.57-2.23,4.47-2.23,2.38,0,4.19,1.1,5.38,3.26l.03.12-.03,10.11Z"/>
    <path class="cls-1" d="M431.12,170.44c.56,0,1.1.03,1.59.1v-3.03c-.34-.13-.81-.2-1.41-.2-2.18,0-3.82.92-5.01,2.82l-.44.7-.07-3.12h-3.15v21.38h3.24l.02-15.38c.92-2.18,2.67-3.29,5.23-3.29Z"/>
    <path class="cls-1" d="M438.86,187.75c1.33,1.17,3.06,1.77,5.14,1.77,2.33,0,4.37-.89,6.05-2.63l.36-.38.06.52c.12.96.26,1.66.44,2.09l3.51-.02c-.51-1.21-.77-2.84-.77-4.85v-10.07c-.05-2.12-.77-3.81-2.14-5.02-1.38-1.21-3.31-1.83-5.76-1.83-1.55,0-2.99.29-4.28.87-1.28.57-2.31,1.36-3.06,2.34-.68.89-1.05,1.82-1.1,2.76h3.26c.07-.93.56-1.73,1.45-2.4.94-.7,2.12-1.06,3.51-1.06,1.58,0,2.81.42,3.63,1.24.83.82,1.25,1.93,1.25,3.3v1.97h-3.89c-3.07,0-5.48.62-7.16,1.84-1.66,1.21-2.5,2.92-2.5,5.11,0,1.79.67,3.29,1.99,4.45ZM447.24,178.49h3.18l-.03,4.85c-.49,1.01-1.29,1.84-2.38,2.47-1.09.63-2.25.94-3.46.94-1.28,0-2.35-.35-3.17-1.05-.84-.71-1.26-1.7-1.26-2.94,0-2.84,2.4-4.27,7.13-4.27Z"/>
    <path class="cls-1" d="M464.24,188.09c.8.95,2,1.43,3.59,1.43.85,0,1.73-.12,2.62-.34v-2.52c-.63.12-1.14.19-1.53.19-.95,0-1.64-.25-2.05-.75-.4-.48-.6-1.2-.6-2.13v-13.84h4.09v-2.39h-4.09v-5.3h-3.24v5.3h-3.98v2.39h3.98v13.82c0,1.79.41,3.19,1.22,4.15Z"/>
    <g>
      <path class="cls-1" d="M480.32,160.3c-.33-.37-.81-.55-1.47-.55s-1.14.18-1.46.54c-.33.37-.49.82-.49,1.37s.16.99.49,1.35c.32.35.81.53,1.46.53s1.14-.17,1.48-.53c.34-.36.5-.8.5-1.35s-.16-1-.5-1.37Z"/>
      <rect class="cls-1" x="477.2" y="167.72" width="3.24" height="21.38"/>
    </g>
    <path class="cls-1" d="M497.27,167.32c-1.87,0-3.56.46-5.02,1.36s-2.61,2.2-3.43,3.86c-.82,1.67-1.24,3.58-1.24,5.67v.26c0,3.32.91,6.02,2.7,8.02,1.78,2,4.14,3.01,7.02,3.01,1.91,0,3.63-.46,5.1-1.38,1.47-.91,2.62-2.21,3.41-3.85.8-1.65,1.2-3.54,1.2-5.62v-.26c0-3.35-.91-6.06-2.7-8.07-1.78-2-4.15-3.01-7.04-3.01ZM502.04,184.62c-1.17,1.55-2.76,2.34-4.73,2.34s-3.55-.77-4.72-2.3c-1.16-1.51-1.74-3.52-1.74-6,0-2.78.59-4.96,1.75-6.46,1.18-1.53,2.75-2.3,4.67-2.3s3.56.78,4.74,2.33c1.17,1.53,1.76,3.54,1.76,5.99,0,2.73-.58,4.88-1.73,6.41Z"/>
    <path class="cls-1" d="M519.35,171.01c.96-.67,2.08-1.02,3.34-1.02,1.56,0,2.73.41,3.49,1.21.75.8,1.13,2.03,1.15,3.67v14.23h3.24v-14.21c-.04-5.1-2.25-7.58-6.75-7.58-2.6,0-4.74,1.03-6.36,3.06l-.42.52-.14-3.18h-3.05v21.38h3.24l.03-15.45c.53-1.09,1.28-1.98,2.22-2.64Z"/>
  </g>
  <g>
    <rect class="cls-1" x="443.22" y="118.41" width="21" height="16.25"/>
    <path class="cls-1" d="M601.8,134.66c17.71,0,35.63-9.7,35.63-28.23v-54.16h-21.65v53.8c0,6.7-7.03,10.21-13.98,10.21s-14.11-3.51-14.11-10.21v-53.8h-21.65v54.16c0,18.53,17.99,28.23,35.76,28.23Z"/>
    <rect class="cls-1" x="158.51" y="52.28" width="21.01" height="82.38"/>
    <path class="cls-1" d="M257.5,129.07c5.37-5.37,5.72-13.59,5.62-20.87,0-.59-.02-1.18-.03-1.75-.09-4.61-1.1-11-5.4-15.29-3.58-3.58-9.3-5.4-17.01-5.4h-21.53c-4.07,0-7.39-3.33-7.39-7.43v-2.41c0-4.09,3.31-7.43,7.39-7.43h36.91v-16.22h-41.68c-8.26,0-14.32,1.89-18.01,5.63-3.74,3.7-5.63,9.76-5.63,18.02v3.61c0,8.26,1.89,14.32,5.63,18.01,3.7,3.74,9.76,5.63,18.02,5.63h21.64c3.29,0,6.02,2.66,6.09,5.94v.26s-.03,0-.03,0v1.65c0,4.09-3.31,7.43-7.39,7.43h-43.97v16.22h48.74c8.25,0,14.31-1.88,18.02-5.59Z"/>
    <path class="cls-1" d="M359.65,108.2c-.09,7.28.25,15.5,5.62,20.87,3.71,3.71,9.77,5.59,18.02,5.59h48.74v-16.22h-43.97c-4.07,0-7.39-3.33-7.39-7.43l-.03-1.91c.07-3.27,2.81-5.94,6.09-5.94h21.64c8.26,0,14.32-1.89,18.01-5.63,3.74-3.7,5.63-9.76,5.63-18.02v-3.61c0-8.26-1.89-14.32-5.63-18.01-3.7-3.74-9.76-5.63-18.02-5.63h-41.68v16.22h36.91c4.07,0,7.39,3.33,7.39,7.43v2.41c0,4.09-3.31,7.43-7.39,7.43h-21.53c-7.71,0-13.43,1.82-17.01,5.4-4.3,4.3-5.31,10.69-5.4,15.29-.01.58-.02,1.16-.03,1.75Z"/>
    <path class="cls-1" d="M119.86,59.15l-14.67,48.55h-.85l-.05-.18-14.51-48.36c-1.23-4.1-4.93-6.85-9.21-6.85h-17.9l24.11,67.99c3.42,9.65,9.14,14.35,17.49,14.35s15.73-5.37,18.91-14.37l24.01-67.97h-18.12c-4.27,0-7.97,2.75-9.21,6.84Z"/>
    <path class="cls-1" d="M329.61,66.69c-3.18-9-10.25-14.38-18.91-14.38s-14.07,4.7-17.5,14.36l-24.11,67.99h17.9c4.28,0,7.99-2.75,9.22-6.85l3.32-11.07h23.41l3.35,11.08c1.23,4.09,4.93,6.83,9.2,6.83h18.12l-24-67.97ZM304.54,100.04l6.23-20.77h.86l6.28,20.77h-13.36Z"/>
    <path class="cls-1" d="M517.15,52.31c-8.34,0-14.07,4.7-17.5,14.36l-24.11,67.99h17.9c4.28,0,7.99-2.75,9.22-6.85l3.32-11.07h23.41l3.35,11.08c1.23,4.09,4.92,6.83,9.2,6.83h18.12l-24-67.97c-3.18-9-10.24-14.38-18.91-14.38ZM510.98,100.04l6.23-20.77h.86l6.28,20.77h-13.36Z"/>
  </g>
</svg>
