<svg width="700" height="250" viewBox="0 0 700 250" fill="none" xmlns="http://www.w3.org/2000/svg">
<path d="M181.94 183.55C181.94 182.54 181.56 181.75 180.8 181.19C180.04 180.63 178.71 180.15 176.82 179.74C174.92 179.34 173.42 178.85 172.31 178.28C171.2 177.71 170.37 177.04 169.84 176.26C169.31 175.48 169.04 174.55 169.04 173.47C169.04 171.68 169.8 170.16 171.32 168.92C172.84 167.68 174.78 167.06 177.13 167.06C179.61 167.06 181.62 167.7 183.17 168.98C184.72 170.26 185.49 171.9 185.49 173.9H181.73C181.73 172.88 181.3 171.99 180.43 171.25C179.56 170.51 178.46 170.14 177.14 170.14C175.82 170.14 174.71 170.44 173.94 171.03C173.17 171.62 172.79 172.4 172.79 173.36C172.79 174.26 173.15 174.94 173.86 175.4C174.57 175.86 175.87 176.3 177.73 176.72C179.6 177.14 181.11 177.64 182.27 178.22C183.43 178.8 184.29 179.5 184.85 180.31C185.41 181.12 185.69 182.12 185.69 183.29C185.69 185.25 184.91 186.81 183.34 187.99C181.78 189.17 179.75 189.76 177.25 189.76C175.5 189.76 173.95 189.45 172.6 188.83C171.25 188.21 170.2 187.34 169.43 186.23C168.66 185.12 168.29 183.91 168.29 182.62H172.03C172.1 183.87 172.6 184.87 173.54 185.6C174.48 186.34 175.71 186.7 177.25 186.7C178.67 186.7 179.8 186.41 180.66 185.84C181.52 185.27 181.94 184.5 181.94 183.54V183.55Z" fill="white"/>
<path d="M195.73 167.47L195.83 169.9C197.43 168.01 199.6 167.07 202.32 167.07C205.38 167.07 207.46 168.24 208.57 170.59C209.3 169.54 210.24 168.69 211.41 168.04C212.58 167.39 213.95 167.07 215.55 167.07C220.35 167.07 222.79 169.61 222.87 174.69V189.35H219.13V174.91C219.13 173.35 218.77 172.18 218.06 171.4C217.35 170.62 216.14 170.24 214.46 170.24C213.07 170.24 211.92 170.66 211 171.48C210.08 172.3 209.55 173.43 209.4 174.83V189.35H205.64V175.01C205.64 171.83 204.08 170.24 200.97 170.24C198.52 170.24 196.84 171.28 195.93 173.37V189.35H192.19V167.47H195.73Z" fill="white"/>
<path d="M243.68 189.36C243.46 188.93 243.29 188.16 243.15 187.05C241.41 188.86 239.33 189.76 236.92 189.76C234.76 189.76 232.99 189.15 231.61 187.93C230.23 186.71 229.54 185.16 229.54 183.29C229.54 181.01 230.41 179.24 232.14 177.98C233.87 176.72 236.31 176.09 239.45 176.09H243.09V174.37C243.09 173.06 242.7 172.02 241.92 171.25C241.14 170.48 239.98 170.09 238.46 170.09C237.13 170.09 236.01 170.43 235.1 171.1C234.2 171.77 233.75 172.59 233.75 173.55H229.99C229.99 172.46 230.38 171.4 231.15 170.38C231.93 169.36 232.98 168.56 234.31 167.96C235.64 167.37 237.1 167.07 238.69 167.07C241.21 167.07 243.19 167.7 244.62 168.96C246.05 170.22 246.79 171.96 246.85 174.17V184.24C246.85 186.25 247.11 187.85 247.62 189.03V189.35H243.7L243.68 189.36ZM237.47 186.51C238.64 186.51 239.76 186.21 240.81 185.6C241.86 184.99 242.62 184.2 243.1 183.23V178.74H240.17C235.59 178.74 233.29 180.08 233.29 182.76C233.29 183.93 233.68 184.85 234.46 185.51C235.24 186.17 236.25 186.5 237.47 186.5V186.51Z" fill="white"/>
<path d="M264.94 170.83C264.37 170.74 263.76 170.69 263.1 170.69C260.65 170.69 258.98 171.73 258.1 173.82V189.35H254.36V167.47H258L258.06 170C259.29 168.04 261.03 167.07 263.28 167.07C264.01 167.07 264.56 167.16 264.94 167.35V170.83Z" fill="white"/>
<path d="M276.12 162.17V167.47H280.21V170.36H276.12V183.95C276.12 184.83 276.3 185.49 276.67 185.92C277.03 186.36 277.65 186.58 278.53 186.58C278.96 186.58 279.55 186.5 280.31 186.34V189.36C279.33 189.63 278.37 189.76 277.44 189.76C275.77 189.76 274.51 189.25 273.66 188.24C272.81 187.23 272.39 185.79 272.39 183.93V170.36H268.41V167.47H272.39V162.17H276.13H276.12Z" fill="white"/>
<path d="M298.17 161.67C298.17 161.06 298.36 160.55 298.73 160.13C299.1 159.71 299.65 159.5 300.38 159.5C301.11 159.5 301.66 159.71 302.04 160.13C302.42 160.55 302.61 161.06 302.61 161.67C302.61 162.28 302.42 162.78 302.04 163.19C301.66 163.6 301.11 163.8 300.38 163.8C299.65 163.8 299.1 163.6 298.73 163.19C298.36 162.79 298.17 162.28 298.17 161.67ZM302.21 189.36H298.47V167.48H302.21V189.36Z" fill="white"/>
<path d="M313.37 167.47L313.47 169.9C315.07 168.01 317.24 167.07 319.96 167.07C323.02 167.07 325.1 168.24 326.21 170.59C326.94 169.54 327.88 168.69 329.05 168.04C330.22 167.39 331.59 167.07 333.19 167.07C337.99 167.07 340.43 169.61 340.51 174.69V189.35H336.77V174.91C336.77 173.35 336.41 172.18 335.7 171.4C334.99 170.62 333.78 170.24 332.1 170.24C330.71 170.24 329.56 170.66 328.64 171.48C327.72 172.3 327.19 173.43 327.04 174.83V189.35H323.28V175.01C323.28 171.83 321.72 170.24 318.61 170.24C316.16 170.24 314.48 171.28 313.57 173.37V189.35H309.83V167.47H313.37Z" fill="white"/>
<path d="M351.33 167.47L351.43 169.9C353.03 168.01 355.2 167.07 357.92 167.07C360.98 167.07 363.06 168.24 364.17 170.59C364.9 169.54 365.84 168.69 367.01 168.04C368.18 167.39 369.55 167.07 371.15 167.07C375.95 167.07 378.39 169.61 378.47 174.69V189.35H374.73V174.91C374.73 173.35 374.37 172.18 373.66 171.4C372.95 170.62 371.74 170.24 370.06 170.24C368.67 170.24 367.52 170.66 366.6 171.48C365.68 172.3 365.15 173.43 365 174.83V189.35H361.24V175.01C361.24 171.83 359.68 170.24 356.57 170.24C354.12 170.24 352.44 171.28 351.53 173.37V189.35H347.79V167.47H351.33Z" fill="white"/>
<path d="M385.8 161.67C385.8 161.06 385.99 160.55 386.36 160.13C386.73 159.71 387.28 159.5 388.01 159.5C388.74 159.5 389.29 159.71 389.67 160.13C390.05 160.55 390.24 161.06 390.24 161.67C390.24 162.28 390.05 162.78 389.67 163.19C389.29 163.59 388.74 163.8 388.01 163.8C387.28 163.8 386.73 163.6 386.36 163.19C385.99 162.79 385.8 162.28 385.8 161.67ZM389.84 189.36H386.1V167.48H389.84V189.36Z" fill="white"/>
<path d="M396.6 178.23C396.6 174.82 397.39 172.11 398.97 170.09C400.55 168.07 402.64 167.07 405.24 167.07C407.84 167.07 409.99 168.01 411.49 169.9L411.67 167.47H415.09V188.83C415.09 191.66 414.25 193.89 412.57 195.52C410.89 197.15 408.64 197.97 405.81 197.97C404.23 197.97 402.69 197.63 401.18 196.96C399.67 196.29 398.52 195.36 397.72 194.19L399.66 191.94C401.26 193.92 403.23 194.91 405.55 194.91C407.37 194.91 408.79 194.4 409.81 193.37C410.83 192.35 411.34 190.9 411.34 189.04V187.16C409.84 188.89 407.8 189.75 405.21 189.75C402.62 189.75 400.58 188.72 398.99 186.66C397.41 184.6 396.61 181.79 396.61 178.23H396.6ZM400.36 178.66C400.36 181.13 400.87 183.07 401.88 184.47C402.89 185.88 404.31 186.58 406.13 186.58C408.49 186.58 410.22 185.51 411.33 183.36V173.37C410.18 171.28 408.46 170.24 406.17 170.24C404.35 170.24 402.93 170.95 401.9 172.36C400.88 173.78 400.36 175.87 400.36 178.65V178.66Z" fill="white"/>
<path d="M432.96 170.83C432.39 170.74 431.78 170.69 431.12 170.69C428.67 170.69 427 171.73 426.12 173.82V189.35H422.38V167.47H426.02L426.08 170C427.31 168.04 429.05 167.07 431.3 167.07C432.03 167.07 432.58 167.16 432.96 167.35V170.83Z" fill="white"/>
<path d="M450.76 189.36C450.54 188.93 450.37 188.16 450.23 187.05C448.49 188.86 446.41 189.76 444 189.76C441.84 189.76 440.07 189.15 438.69 187.93C437.31 186.71 436.62 185.16 436.62 183.29C436.62 181.01 437.49 179.24 439.22 177.98C440.95 176.72 443.39 176.09 446.53 176.09H450.17V174.37C450.17 173.06 449.78 172.02 449 171.25C448.22 170.48 447.06 170.09 445.54 170.09C444.21 170.09 443.09 170.43 442.18 171.1C441.28 171.77 440.83 172.59 440.83 173.55H437.07C437.07 172.46 437.46 171.4 438.23 170.38C439.01 169.36 440.06 168.56 441.39 167.96C442.72 167.37 444.18 167.07 445.77 167.07C448.29 167.07 450.27 167.7 451.7 168.96C453.13 170.22 453.87 171.96 453.93 174.17V184.24C453.93 186.25 454.19 187.85 454.7 189.03V189.35H450.78L450.76 189.36ZM444.55 186.51C445.72 186.51 446.84 186.21 447.89 185.6C448.94 184.99 449.7 184.2 450.18 183.23V178.74H447.25C442.67 178.74 440.37 180.08 440.37 182.76C440.37 183.93 440.76 184.85 441.54 185.51C442.32 186.17 443.33 186.5 444.55 186.5V186.51Z" fill="white"/>
<path d="M466.51 162.17V167.47H470.6V170.36H466.51V183.95C466.51 184.83 466.69 185.49 467.06 185.92C467.43 186.35 468.04 186.58 468.92 186.58C469.35 186.58 469.94 186.5 470.7 186.34V189.36C469.72 189.63 468.76 189.76 467.83 189.76C466.16 189.76 464.9 189.25 464.05 188.24C463.2 187.23 462.78 185.79 462.78 183.93V170.36H458.8V167.47H462.78V162.17H466.52H466.51Z" fill="white"/>
<path d="M476.64 161.67C476.64 161.06 476.83 160.55 477.2 160.13C477.57 159.71 478.12 159.5 478.85 159.5C479.58 159.5 480.13 159.71 480.51 160.13C480.89 160.55 481.08 161.06 481.08 161.67C481.08 162.28 480.89 162.78 480.51 163.19C480.13 163.59 479.58 163.8 478.85 163.8C478.12 163.8 477.57 163.6 477.2 163.19C476.83 162.79 476.64 162.28 476.64 161.67ZM480.69 189.36H476.95V167.48H480.69V189.36Z" fill="white"/>
<path d="M487.34 178.21C487.34 176.07 487.76 174.14 488.6 172.43C489.44 170.72 490.62 169.4 492.12 168.47C493.62 167.54 495.34 167.07 497.27 167.07C500.25 167.07 502.66 168.1 504.5 170.16C506.34 172.22 507.26 174.97 507.26 178.39V178.65C507.26 180.78 506.85 182.69 506.04 184.38C505.22 186.07 504.06 187.39 502.54 188.33C501.02 189.27 499.28 189.75 497.31 189.75C494.34 189.75 491.94 188.72 490.1 186.66C488.26 184.6 487.34 181.87 487.34 178.47V178.21ZM491.1 178.66C491.1 181.09 491.66 183.04 492.79 184.5C493.92 185.97 495.42 186.71 497.31 186.71C499.2 186.71 500.72 185.96 501.84 184.47C502.96 182.98 503.52 180.89 503.52 178.21C503.52 175.81 502.95 173.87 501.81 172.38C500.67 170.89 499.16 170.15 497.27 170.15C495.38 170.15 493.93 170.88 492.8 172.35C491.67 173.82 491.1 175.92 491.1 178.66Z" fill="white"/>
<path d="M517.15 167.47L517.27 170.22C518.94 168.12 521.13 167.06 523.82 167.06C528.44 167.06 530.78 169.67 530.82 174.89V189.35H527.08V174.87C527.07 173.29 526.71 172.13 526 171.37C525.29 170.61 524.19 170.24 522.69 170.24C521.48 170.24 520.41 170.56 519.49 171.21C518.57 171.86 517.86 172.71 517.35 173.76V189.35H513.61V167.47H517.15Z" fill="white"/>
<path d="M442.97 118.16H464.47V134.91H442.97V118.16Z" fill="white"/>
<path d="M615.53 106.08V52.0298H637.68V106.44C637.68 124.49 620.45 134.92 601.8 134.92C583.15 134.92 565.79 124.49 565.79 106.44V52.0298H587.94V106.08C587.94 112.76 595.06 116.04 601.8 116.04C608.54 116.04 615.53 112.76 615.53 106.08Z" fill="white"/>
<path d="M158.26 52.0298V134.91H179.77V52.0298H158.26Z" fill="white"/>
<path d="M263.37 108.19C263.37 107.6 263.35 107.01 263.34 106.43C263.23 100.95 261.86 94.9598 257.87 90.9598C254.22 87.3098 248.48 85.4898 240.69 85.4898H219.16C215.2 85.4898 212.02 82.2698 212.02 78.3098V75.9098C212.02 71.9498 215.2 68.7298 219.16 68.7298H256.32V52.0098H214.39C206.05 52.0098 199.96 53.9098 196.2 57.7098C192.4 61.4698 190.5 67.5598 190.5 75.8998V79.5098C190.5 87.8498 192.4 93.9398 196.2 97.6998C199.96 101.5 206.05 103.4 214.39 103.4H236.03C239.21 103.4 241.81 105.93 241.87 109.09H241.84V110.99C241.84 114.95 238.66 118.17 234.7 118.17H190.48V134.89H239.47C247.81 134.89 253.9 132.99 257.66 129.23C263.09 123.8 263.45 115.5 263.36 108.18L263.37 108.19Z" fill="white"/>
<path d="M359.4 108.19C359.4 107.6 359.42 107.01 359.43 106.43C359.54 100.95 360.91 94.9598 364.9 90.9598C368.55 87.3098 374.29 85.4898 382.08 85.4898H403.61C407.57 85.4898 410.75 82.2698 410.75 78.3098V75.9098C410.75 71.9498 407.57 68.7298 403.61 68.7298H366.45V52.0098H408.38C416.72 52.0098 422.81 53.9098 426.57 57.7098C430.37 61.4698 432.27 67.5598 432.27 75.8998V79.5098C432.27 87.8498 430.37 93.9398 426.57 97.6998C422.81 101.5 416.72 103.4 408.38 103.4H386.74C383.56 103.4 380.96 105.93 380.9 109.09H380.93V110.99C380.93 114.95 384.11 118.17 388.07 118.17H432.29V134.89H383.3C374.96 134.89 368.87 132.99 365.11 129.23C359.68 123.8 359.32 115.5 359.41 108.18L359.4 108.19Z" fill="#F0A000"/>
<path d="M86.5501 120.39L62.3201 52.0596H80.5701C84.9301 52.0596 88.7701 54.9196 90.0201 59.0896L104.53 107.45H105.01L119.63 59.0696C120.89 54.9096 124.73 52.0596 129.08 52.0596H147.55L123.42 120.36C120.34 129.07 113.52 134.9 104.28 134.9C95.0501 134.9 89.6401 129.09 86.5601 120.39H86.5501Z" fill="white"/>
<path d="M329.85 66.6096C326.78 57.8996 319.95 52.0596 310.71 52.0596C301.47 52.0596 296.07 57.8796 292.98 66.5796L268.75 134.9H287C291.36 134.9 295.2 132.04 296.45 127.88L299.72 116.99H322.76L326.05 127.89C327.3 132.06 331.14 134.9 335.49 134.9H353.96L329.84 66.5996L329.85 66.6096ZM304.88 99.7896L310.96 79.5196H311.45L317.58 99.7896H304.89H304.88Z" fill="white"/>
<path d="M536.29 66.6096C533.22 57.8996 526.39 52.0596 517.15 52.0596C507.91 52.0596 502.51 57.8796 499.42 66.5796L475.19 134.9H493.44C497.8 134.9 501.64 132.04 502.89 127.88L506.16 116.99H529.2L532.49 127.89C533.74 132.06 537.58 134.9 541.93 134.9H560.4L536.28 66.5996L536.29 66.6096ZM511.32 99.7896L517.4 79.5196H517.89L524.02 99.7896H511.33H511.32Z" fill="white"/>
</svg>
